<?xml version="1.0" encoding="UTF-8"?>
<svg version="1.1" xmlns="http://www.w3.org/2000/svg" width="287" height="287">
<path d="M0 0 C0.80759766 -0.03738281 1.61519531 -0.07476562 2.44726562 -0.11328125 C6.69813977 -0.1759477 8.64461624 -0.00726311 12.2109375 2.50390625 C14.48317581 5.80448956 14.86905358 7.71545865 15 11.6875 C15.04769531 12.75613281 15.09539063 13.82476562 15.14453125 14.92578125 C15.15871094 15.73402344 15.17289063 16.54226562 15.1875 17.375 C19.93618061 17.27163563 22.34831435 16.62774682 25.79296875 13.28515625 C27.0026787 12.01740133 28.19645867 10.73428103 29.375 9.4375 C30.57220195 8.15322881 31.77388238 6.87311473 32.98046875 5.59765625 C33.5014917 5.02797119 34.02251465 4.45828613 34.55932617 3.87133789 C38.92627271 -0.14200974 43.29580671 0.09469578 49.00390625 0.14453125 C50.28321266 0.14521858 50.28321266 0.14521858 51.58836365 0.1459198 C53.38794347 0.14893596 55.18752082 0.15680324 56.98706055 0.16918945 C59.74342074 0.1874564 62.49944493 0.18969895 65.25585938 0.18945312 C67.00521124 0.1943683 68.75456083 0.20019662 70.50390625 0.20703125 C71.32895157 0.20814407 72.15399689 0.2092569 73.00404358 0.21040344 C76.31359429 0.23790796 79.02640314 0.32130105 82.1875 1.375 C82.5175 1.045 82.8475 0.715 83.1875 0.375 C86.10948393 0.27384706 89.00732754 0.235312 91.9296875 0.2421875 C92.80899933 0.24123077 93.68831116 0.24027405 94.5942688 0.23928833 C96.45884268 0.23860634 98.32341893 0.24046191 100.18798828 0.24462891 C103.04334868 0.24996422 105.89855086 0.24469113 108.75390625 0.23828125 C110.56250035 0.23894228 112.37109435 0.24022395 114.1796875 0.2421875 C115.46418289 0.23915115 115.46418289 0.23915115 116.77462769 0.23605347 C120.15848696 0.24943043 122.955146 0.29754867 126.1875 1.375 C126.5175 1.045 126.8475 0.715 127.1875 0.375 C128.55710308 0.27531315 129.93178498 0.2442545 131.30500793 0.24128723 C132.63624947 0.23488976 132.63624947 0.23488976 133.99438477 0.22836304 C134.97568359 0.22881622 135.95698242 0.22926941 136.96801758 0.22973633 C138.50941658 0.22469841 138.50941658 0.22469841 140.08195496 0.21955872 C143.49865916 0.21001494 146.91531452 0.20810377 150.33203125 0.20703125 C152.69756592 0.20382061 155.0631004 0.20045669 157.42863464 0.19694519 C162.39619405 0.19094503 167.36373605 0.18910615 172.33129883 0.18969727 C178.70382363 0.18979884 185.07623688 0.17615564 191.44873524 0.15892506 C196.33770767 0.14781728 201.22665306 0.1457777 206.11563683 0.14630699 C208.46522086 0.14512468 210.81480554 0.14068892 213.16437721 0.13297462 C216.44926422 0.12320123 219.73390809 0.12604259 223.01879883 0.13208008 C223.99402496 0.12646057 224.9692511 0.12084106 225.97402954 0.11505127 C227.31796028 0.121343 227.31796028 0.121343 228.68904114 0.12776184 C229.4657356 0.12721707 230.24243006 0.12667231 231.04266071 0.12611103 C233.49789745 0.41101878 235.09525126 1.07180052 237.1875 2.375 C238.75280736 5.50561472 238.61263363 8.89434757 238.82470703 12.34008789 C238.8771073 13.16568931 238.92950756 13.99129072 238.98349571 14.84191036 C239.64080357 25.69940753 240.04085043 36.56403058 240.3125 47.4375 C240.35234638 48.99460756 240.35234638 48.99460756 240.39299774 50.58317184 C241.41122018 95.52780318 241.41122018 95.52780318 228.73043823 110.1683197 C221.83149372 117.17181069 210.22846222 128.09733649 199.92560101 128.50363445 C198.48896477 128.51048019 197.05229581 128.51169664 195.61564636 128.50871277 C194.82525618 128.51097833 194.03486601 128.51324388 193.22052461 128.51557809 C190.55740217 128.52193612 187.89433039 128.52108757 185.23120117 128.52026367 C183.32771234 128.52325408 181.42422411 128.52665633 179.52073669 128.53044128 C174.33886325 128.53929844 169.15700631 128.54162014 163.97512603 128.54225707 C159.65350936 128.54320497 155.33189657 128.54688196 151.01028138 128.55042917 C140.81536464 128.55858055 130.62045673 128.56101281 120.42553711 128.56030273 C109.90097962 128.55970203 99.3764734 128.57025089 88.85192889 128.5860464 C79.82428183 128.59911366 70.79665155 128.60448696 61.76899511 128.60384732 C56.3736547 128.60359206 50.97835981 128.60645877 45.58302879 128.61702538 C40.50810107 128.62669245 35.43326251 128.62679508 30.35833168 128.61950874 C28.49470006 128.61846111 26.63106294 128.62083635 24.7674408 128.6268692 C22.22495658 128.634567 19.68278194 128.62995898 17.14030457 128.62223816 C16.40138904 128.62738172 15.66247352 128.63252529 14.90116662 128.63782471 C11.7394132 128.61658257 9.3265924 128.43146037 6.37794971 127.23454762 C5.65510131 126.9508969 4.9322529 126.66724619 4.1875 126.375 C3.1975 127.035 2.2075 127.695 1.1875 128.375 C-0.7028656 128.64242554 -0.7028656 128.64242554 -2.85327148 128.66552734 C-3.66098495 128.67828705 -4.46869843 128.69104675 -5.30088806 128.70419312 C-6.16968094 128.70641876 -7.03847382 128.70864441 -7.93359375 128.7109375 C-9.27805321 128.7209227 -9.27805321 128.7209227 -10.64967346 128.73110962 C-12.54515531 128.7412337 -14.44067278 128.74592671 -16.33618164 128.74560547 C-19.23578602 128.74997856 -22.13386812 128.78629963 -25.03320312 128.82421875 C-26.87499479 128.83008698 -28.71679369 128.83405633 -30.55859375 128.8359375 C-31.4253624 128.85030853 -32.29213104 128.86467957 -33.18516541 128.87948608 C-37.02008453 128.85038477 -39.14491562 128.8331499 -42.36425781 126.6237793 C-43.97845242 124.11731495 -44.29522252 122.88541635 -44.23828125 119.93359375 C-44.22990234 119.10279297 -44.22152344 118.27199219 -44.21289062 117.41601562 C-44.18388672 116.55685547 -44.15488281 115.69769531 -44.125 114.8125 C-44.11533203 113.94947266 -44.10566406 113.08644531 -44.09570312 112.19726562 C-44.03188315 108.62612187 -43.95024094 105.78822283 -42.8125 102.375 C-43.1425 102.045 -43.4725 101.715 -43.8125 101.375 C-45.26964829 90.98101331 -45.58292994 80.35619235 -45.9375 69.875 C-45.97734638 68.72557293 -45.97734638 68.72557293 -46.01799774 67.55292511 C-46.56211981 49.80723087 -46.82150766 34.09917353 -34.35543823 20.18939209 C-24.73443897 10.45371268 -14.07746494 0.24366973 0 0 Z " fill="#17025E" transform="translate(44.8125,77.625)"/>
<path d="M0 0 C1.60279192 0.00015914 3.20558896 0.00585476 4.80834961 0.01586914 C5.65038437 0.01728409 6.49241913 0.01869904 7.35997009 0.02015686 C10.06024671 0.02577276 12.76044163 0.03832791 15.46069336 0.05102539 C17.28686404 0.05603834 19.11303602 0.06060161 20.93920898 0.06469727 C25.42556878 0.07574735 29.9118672 0.0930226 34.39819336 0.11352539 C34.42283849 6.21907249 34.44102707 12.3245909 34.453125 18.43017578 C34.45816624 20.50895695 34.4649991 22.58773455 34.47363281 24.66650391 C34.48570758 27.64755125 34.4914236 30.62855188 34.49584961 33.60961914 C34.50101089 34.54503036 34.50617218 35.48044159 34.51148987 36.44419861 C34.5115654 37.30501541 34.51164093 38.16583221 34.51171875 39.05273438 C34.51393936 39.81440414 34.51615997 40.57607391 34.51844788 41.36082458 C34.39819336 43.11352539 34.39819336 43.11352539 33.39819336 44.11352539 C30.88683231 44.21327571 28.40915921 44.25234722 25.89819336 44.23852539 C25.1956543 44.24239258 24.49311523 44.24625977 23.76928711 44.25024414 C18.52480714 44.24013917 18.52480714 44.24013917 17.39819336 43.11352539 C17.31081691 41.25982928 17.29121183 39.40284998 17.30053711 37.54711914 C17.30375977 36.42241211 17.30698242 35.29770508 17.31030273 34.13891602 C17.31868164 32.95491211 17.32706055 31.7709082 17.33569336 30.55102539 C17.34020508 29.3631543 17.3447168 28.1752832 17.34936523 26.95141602 C17.36119661 24.00540313 17.37768049 21.05948858 17.39819336 18.11352539 C16.07819336 18.44352539 14.75819336 18.77352539 13.39819336 19.11352539 C13.39819336 35.61352539 13.39819336 52.11352539 13.39819336 69.11352539 C14.38819336 69.11352539 15.37819336 69.11352539 16.39819336 69.11352539 C16.42324951 68.51290283 16.44830566 67.91228027 16.47412109 67.29345703 C16.58974616 64.58741102 16.71262272 61.88174256 16.83569336 59.17602539 C16.87500977 58.23049805 16.91432617 57.2849707 16.95483398 56.31079102 C16.99672852 55.41166992 17.03862305 54.51254883 17.08178711 53.58618164 C17.11844482 52.75352783 17.15510254 51.92087402 17.19287109 51.06298828 C17.39819336 49.11352539 17.39819336 49.11352539 18.39819336 48.11352539 C20.9095544 48.01377507 23.38722751 47.97470356 25.89819336 47.98852539 C26.60073242 47.9846582 27.30327148 47.98079102 28.02709961 47.97680664 C33.27157958 47.98691161 33.27157958 47.98691161 34.39819336 49.11352539 C34.49922591 51.91346137 34.53789424 54.68821183 34.53100586 57.48852539 C34.53196259 58.32818848 34.53291931 59.16785156 34.53390503 60.03295898 C34.53458683 61.81176834 34.53273252 63.59058016 34.52856445 65.36938477 C34.52321619 68.10186315 34.52850941 70.83417715 34.53491211 73.56665039 C34.53425133 75.29060909 34.53297017 77.01456768 34.53100586 78.73852539 C34.53303009 79.56143066 34.53505432 80.38433594 34.53713989 81.23217773 C34.5131439 86.99857485 34.5131439 86.99857485 33.39819336 88.11352539 C30.65925251 88.20211185 27.94566066 88.22876018 25.20678711 88.21118164 C24.38694839 88.20976669 23.56710968 88.20835175 22.72242737 88.20689392 C20.09347954 88.20127828 17.46461562 88.18872318 14.83569336 88.17602539 C13.05769979 88.1710124 11.2797049 88.16644915 9.50170898 88.16235352 C5.13383791 88.15130378 0.76602988 88.1340287 -3.60180664 88.11352539 C-5.18073271 84.95567324 -4.74012909 81.56650551 -4.73120117 78.09960938 C-4.73295349 77.27187012 -4.73470581 76.44413086 -4.73651123 75.59130859 C-4.74092295 72.84739097 -4.7379944 70.10353746 -4.73461914 67.35961914 C-4.73529231 65.4591521 -4.73626245 63.55868513 -4.73751831 61.65821838 C-4.73899431 57.67269065 -4.73684362 53.6871853 -4.73217773 49.70166016 C-4.72647664 44.58105662 -4.72976248 39.46050545 -4.7357502 34.33990383 C-4.73935515 30.41526389 -4.7382176 26.49063647 -4.73562241 22.56599617 C-4.73495315 20.67725684 -4.7357815 18.78851639 -4.73810196 16.89977837 C-4.74062782 14.26583701 -4.73678903 11.63198178 -4.73120117 8.99804688 C-4.7332254 8.20997147 -4.73524963 7.42189606 -4.73733521 6.60993958 C-4.71180569 0.14851147 -4.71180569 0.14851147 0 0 Z " fill="#FAC806" transform="translate(89.601806640625,82.886474609375)"/>
<path d="M0 0 C27.39 0 54.78 0 83 0 C83 5.61 83 11.22 83 17 C68.81 17.33 54.62 17.66 40 18 C39.90912109 25.45400391 39.90912109 25.45400391 39.81640625 33.05859375 C39.77593214 36.19857682 39.73516929 39.33855076 39.69335938 42.47851562 C39.62696109 47.46717306 39.5616577 52.45582861 39.50268555 57.44458008 C39.45509765 61.46463894 39.40275714 65.48460989 39.34705925 69.50456429 C39.32661034 71.04160447 39.30790153 72.57866879 39.29092598 74.11575127 C39.2669378 76.26142006 39.23687617 78.40692129 39.20532227 80.55249023 C39.18977798 81.77604721 39.1742337 82.99960419 39.15821838 84.26023865 C39 87 39 87 38 88 C35.48863896 88.09975032 33.01096585 88.13882183 30.5 88.125 C29.79746094 88.12886719 29.09492188 88.13273437 28.37109375 88.13671875 C23.12661378 88.12661378 23.12661378 88.12661378 22 87 C21.87603129 84.85331715 21.8219928 82.70257613 21.79467773 80.55249023 C21.78477814 79.87934784 21.77487854 79.20620544 21.76467896 78.51266479 C21.73298162 76.27801075 21.70827426 74.04333542 21.68359375 71.80859375 C21.66303131 70.26302016 21.64203504 68.71745228 21.62062073 67.17189026 C21.56532663 63.09649268 21.51594987 59.02104375 21.46777344 54.94555664 C21.41761183 50.7898296 21.36189796 46.63417748 21.30664062 42.47851562 C21.19896934 34.31907194 21.09805729 26.15956489 21 18 C14.07 17.67 7.14 17.34 0 17 C0 11.39 0 5.78 0 0 Z " fill="#F9C806" transform="translate(195,83)"/>
<path d="M0 0 C12.87 0 25.74 0 39 0 C39.04010881 16.1816763 39.04010881 16.1816763 39.04882812 23.05664062 C39.05481585 27.75562666 39.06191425 32.45459328 39.07543945 37.15356445 C39.0862708 40.94014257 39.09227736 44.7266999 39.09487724 48.51329231 C39.09673105 49.96104319 39.10035081 51.40879288 39.10573006 52.85653496 C39.11294367 54.87757135 39.11340808 56.89862848 39.11352539 58.91967773 C39.115746 60.07217514 39.11796661 61.22467255 39.12025452 62.41209412 C39 65 39 65 38 66 C35.5057035 66.15313272 33.05811507 66.23156517 30.5625 66.25 C29.86833984 66.270625 29.17417969 66.29125 28.45898438 66.3125 C26.44140625 66.328125 26.44140625 66.328125 23 66 C22.34 65.01 21.68 64.02 21 63 C18.94074861 62.27617533 18.94074861 62.27617533 17 62 C16.67 63.32 16.34 64.64 16 66 C13.52076199 66.02685095 11.0418116 66.04676547 8.5625 66.0625 C7.85544922 66.07087891 7.14839844 66.07925781 6.41992188 66.08789062 C4.61306441 66.09653588 2.80612397 66.05220011 1 66 C0 65 0 65 -0.12025452 63.24729919 C-0.11803391 62.48562943 -0.11581329 61.72395966 -0.11352539 60.93920898 C-0.11344986 60.07839218 -0.11337433 59.21757538 -0.11329651 58.33067322 C-0.10813522 57.39526199 -0.10297394 56.45985077 -0.09765625 55.49609375 C-0.0962413 54.54307877 -0.09482635 53.59006378 -0.09336853 52.60816956 C-0.08775152 49.55124835 -0.07519616 46.49439923 -0.0625 43.4375 C-0.05748719 41.37044376 -0.05292391 39.30338638 -0.04882812 37.23632812 C-0.03862558 32.15750167 -0.01905356 27.07883194 0 22 C9.57 21.67 19.14 21.34 29 21 C29.33 18.36 29.66 15.72 30 13 C27.8537974 13.14029419 25.70803782 13.28738164 23.5625 13.4375 C22.36753906 13.51871094 21.17257812 13.59992188 19.94140625 13.68359375 C17.11429756 13.67656114 17.11429756 13.67656114 16 15 C13.48863896 15.09975032 11.01096585 15.13882183 8.5 15.125 C7.79746094 15.12886719 7.09492188 15.13273437 6.37109375 15.13671875 C1.12661378 15.12661378 1.12661378 15.12661378 0 14 C0 9.38 0 4.76 0 0 Z " fill="#FC5066" transform="translate(239,105)"/>
<path d="M0 0 C2.81256281 -0.02684312 5.62487241 -0.04676188 8.4375 -0.0625 C9.23994141 -0.07087891 10.04238281 -0.07925781 10.86914062 -0.08789062 C12.91295221 -0.0965143 14.95683902 -0.0522815 17 0 C18 1 18 1 18.12025452 3.73976135 C18.1169236 5.57509682 18.1169236 5.57509682 18.11352539 7.44750977 C18.11367142 8.12065216 18.11381744 8.79379456 18.1139679 9.48733521 C18.11326878 11.72205784 18.10547652 13.9566981 18.09765625 16.19140625 C18.09579206 17.73697362 18.09436816 19.28254157 18.09336853 20.82810974 C18.0895434 24.90357077 18.07971317 28.97899637 18.06866455 33.05444336 C18.05845032 37.21011882 18.05387089 41.36579999 18.04882812 45.52148438 C18.03809089 53.68100587 18.02101454 61.84049853 18 70 C19.485 69.505 19.485 69.505 21 69 C21.144375 67.865625 21.28875 66.73125 21.4375 65.5625 C22 62 22 62 23 61 C25.51136104 60.90024968 27.98903415 60.86117817 30.5 60.875 C31.20253906 60.87113281 31.90507812 60.86726563 32.62890625 60.86328125 C37.87338622 60.87338622 37.87338622 60.87338622 39 62 C39.09959621 63.84159023 39.13080411 65.68696967 39.1328125 67.53125 C39.13474609 69.21154297 39.13474609 69.21154297 39.13671875 70.92578125 C39.13285156 72.10527344 39.12898438 73.28476563 39.125 74.5 C39.13080078 76.26923828 39.13080078 76.26923828 39.13671875 78.07421875 C39.13542969 79.19441406 39.13414062 80.31460938 39.1328125 81.46875 C39.13168457 82.50451172 39.13055664 83.54027344 39.12939453 84.60742188 C39 87 39 87 38 88 C35.27275721 88.10099488 32.57137477 88.13970529 29.84375 88.1328125 C28.61754944 88.13424759 28.61754944 88.13424759 27.36657715 88.13571167 C25.63484622 88.13639345 23.90311276 88.13453929 22.17138672 88.13037109 C19.51133518 88.12502279 16.8514525 88.13031612 14.19140625 88.13671875 C12.51302046 88.13605797 10.83463477 88.1347768 9.15625 88.1328125 C8.35521851 88.13483673 7.55418701 88.13686096 6.72888184 88.13894653 C1.11495079 88.11495079 1.11495079 88.11495079 0 87 C-0.09514592 84.29161914 -0.12554932 81.60881487 -0.11352539 78.90014648 C-0.11367142 78.05143982 -0.11381744 77.20273315 -0.1139679 76.32830811 C-0.11326848 73.50921109 -0.10547478 70.69017929 -0.09765625 67.87109375 C-0.09579217 65.92196183 -0.09436822 63.97282945 -0.09336853 62.0236969 C-0.08954255 56.88293168 -0.07971159 51.74219453 -0.06866455 46.60144043 C-0.05845215 41.35994852 -0.05387128 36.1184521 -0.04882812 30.87695312 C-0.03808939 20.58462306 -0.02101201 10.29231386 0 0 Z " fill="#FA5195" transform="translate(173,83)"/>
<path d="M0 0 C5.61 0 11.22 0 17 0 C17.495 7.92 17.495 7.92 18 16 C18.99 16 19.98 16 21 16 C21.33 10.72 21.66 5.44 22 0 C25.9290625 -0.0309375 25.9290625 -0.0309375 29.9375 -0.0625 C30.7637085 -0.071604 31.58991699 -0.08070801 32.44116211 -0.09008789 C34.29433759 -0.09723945 36.14749308 -0.0502852 38 0 C39.94863925 1.94863925 39.1291874 4.8980872 39.13894653 7.49121094 C39.1369223 8.40161133 39.13489807 9.31201172 39.1328125 10.25 C39.13376923 11.17844727 39.13472595 12.10689453 39.13571167 13.06347656 C39.13639355 15.03059965 39.13453872 16.99772496 39.13037109 18.96484375 C39.12502295 21.98703026 39.13031582 25.00906815 39.13671875 28.03125 C39.13605797 29.93750033 39.13477681 31.84375057 39.1328125 33.75 C39.13483673 34.66040039 39.13686096 35.57080078 39.13894653 36.50878906 C39.11494969 42.88505031 39.11494969 42.88505031 38 44 C35.48863896 44.09975032 33.01096585 44.13882183 30.5 44.125 C29.79746094 44.12886719 29.09492188 44.13273437 28.37109375 44.13671875 C23.12661378 44.12661378 23.12661378 44.12661378 22 43 C21.92680379 40.30345146 21.90757463 37.63308542 21.9375 34.9375 C21.94201172 34.17888672 21.94652344 33.42027344 21.95117188 32.63867188 C21.9629932 30.75908129 21.98092922 28.87953101 22 27 C20.68 27.33 19.36 27.66 18 28 C17.90912109 29.60681641 17.90912109 29.60681641 17.81640625 31.24609375 C17.73201463 32.64324391 17.64736594 34.04037857 17.5625 35.4375 C17.52318359 36.14455078 17.48386719 36.85160156 17.44335938 37.58007812 C17.11328125 42.88671875 17.11328125 42.88671875 16 44 C13.48863896 44.09975032 11.01096585 44.13882183 8.5 44.125 C7.79746094 44.12886719 7.09492188 44.13273437 6.37109375 44.13671875 C1.12661378 44.12661378 1.12661378 44.12661378 0 43 C-0.09268999 41.64905018 -0.11747326 40.29332909 -0.11352539 38.93920898 C-0.11344986 38.07839218 -0.11337433 37.21757538 -0.11329651 36.33067322 C-0.10813522 35.39526199 -0.10297394 34.45985077 -0.09765625 33.49609375 C-0.0962413 32.54307877 -0.09482635 31.59006378 -0.09336853 30.60816956 C-0.08775152 27.55124835 -0.07519616 24.49439923 -0.0625 21.4375 C-0.05748719 19.37044376 -0.05292391 17.30338638 -0.04882812 15.23632812 C-0.03777656 10.15752412 -0.02050055 5.0787743 0 0 Z " fill="#FAA50C" transform="translate(129,83)"/>
<path d="M0 0 C5.61 0 11.22 0 17 0 C17.33 7.92 17.66 15.84 18 24 C18.99 24 19.98 24 21 24 C21.02505615 23.39937744 21.0501123 22.79875488 21.07592773 22.17993164 C21.1915528 19.47388563 21.31442936 16.76821717 21.4375 14.0625 C21.47681641 13.11697266 21.51613281 12.17144531 21.55664062 11.19726562 C21.59853516 10.29814453 21.64042969 9.39902344 21.68359375 8.47265625 C21.72025146 7.64000244 21.75690918 6.80734863 21.79467773 5.94946289 C22 4 22 4 23 3 C25.51136104 2.90024968 27.98903415 2.86117817 30.5 2.875 C31.20253906 2.87113281 31.90507813 2.86726562 32.62890625 2.86328125 C37.87338622 2.87338622 37.87338622 2.87338622 39 4 C39.10103255 6.79993597 39.13970088 9.57468644 39.1328125 12.375 C39.13376923 13.21466309 39.13472595 14.05432617 39.13571167 14.91943359 C39.13639348 16.69824295 39.13453917 18.47705477 39.13037109 20.25585938 C39.12502283 22.98833776 39.13031605 25.72065176 39.13671875 28.453125 C39.13605797 30.1770837 39.13477681 31.90104229 39.1328125 33.625 C39.13483673 34.44790527 39.13686096 35.27081055 39.13894653 36.11865234 C39.11495054 41.88504946 39.11495054 41.88504946 38 43 C35.26105915 43.08858646 32.5474673 43.11523479 29.80859375 43.09765625 C28.98875504 43.0962413 28.16891632 43.09482635 27.32423401 43.09336853 C24.69528618 43.08775289 22.06642227 43.07519779 19.4375 43.0625 C17.65950643 43.05748701 15.88151154 43.05292376 14.10351562 43.04882812 C9.73564455 43.03777839 5.36783652 43.02050331 1 43 C-0.71802382 39.56395235 -0.1196618 35.61561104 -0.09765625 31.8359375 C-0.0962413 30.92872955 -0.09482635 30.02152161 -0.09336853 29.08682251 C-0.08776096 26.18284845 -0.07520718 23.27895085 -0.0625 20.375 C-0.05748598 18.40885528 -0.0529229 16.44270935 -0.04882812 14.4765625 C-0.03778906 9.6510121 -0.02051935 4.82551903 0 0 Z " fill="#FA5195" transform="translate(85,128)"/>
<path d="M0 0 C5.39346988 -0.02464849 10.78690725 -0.04283531 16.18041992 -0.05493164 C18.01668875 -0.05997231 19.85295354 -0.06680477 21.68920898 -0.07543945 C24.32276401 -0.08751672 26.95626616 -0.09323081 29.58984375 -0.09765625 C30.41588608 -0.10281754 31.24192841 -0.10797882 32.09300232 -0.11329651 C34.06236368 -0.11349205 36.03161614 -0.06204152 38 0 C39.84276509 1.84276509 39.12874411 4.42963759 39.13894653 6.88134766 C39.1369223 7.70425293 39.13489807 8.5271582 39.1328125 9.375 C39.13376923 10.21466309 39.13472595 11.05432617 39.13571167 11.91943359 C39.13639348 13.69824295 39.13453917 15.47705477 39.13037109 17.25585938 C39.12502283 19.98833776 39.13031605 22.72065176 39.13671875 25.453125 C39.13605797 27.1770837 39.13477681 28.90104229 39.1328125 30.625 C39.13483673 31.44790527 39.13686096 32.27081055 39.13894653 33.11865234 C39.11495054 38.88504946 39.11495054 38.88504946 38 40 C35.52437918 40.18020629 33.1030672 40.27795445 30.625 40.3125 C29.93921875 40.34150391 29.2534375 40.37050781 28.546875 40.40039062 C26.5390625 40.42578125 26.5390625 40.42578125 23 40 C21.1484375 37.98046875 21.1484375 37.98046875 20 36 C19.34 36 18.68 36 18 36 C17.34 37.32 16.68 38.64 16 40 C13.52076199 40.02685095 11.0418116 40.04676547 8.5625 40.0625 C7.85544922 40.07087891 7.14839844 40.07925781 6.41992188 40.08789062 C4.61306441 40.09653588 2.80612397 40.05220011 1 40 C-0.82116003 38.17883997 -0.1323508 35.69328236 -0.13671875 33.2734375 C-0.13285156 32.52320313 -0.12898438 31.77296875 -0.125 31 C-0.12886719 30.24976563 -0.13273437 29.49953125 -0.13671875 28.7265625 C-0.12661053 23.12661053 -0.12661053 23.12661053 1 22 C3.14558827 21.91224395 5.29404421 21.89304781 7.44140625 21.90234375 C8.74658203 21.90556641 10.05175781 21.90878906 11.39648438 21.91210938 C12.7851569 21.92046599 14.17382877 21.92893095 15.5625 21.9375 C16.95507656 21.94251334 18.34765481 21.94707653 19.74023438 21.95117188 C23.1601987 21.96300566 26.58007844 21.9794912 30 22 C29.67 19.36 29.34 16.72 29 14 C27.20866022 13.94608007 25.41686101 13.90724429 23.625 13.875 C22.62726562 13.85179687 21.62953125 13.82859375 20.6015625 13.8046875 C17.83737827 13.72783152 17.83737827 13.72783152 16 16 C13.43707683 16.17163731 10.99654143 16.23264558 8.4375 16.1875 C7.73947266 16.18685547 7.04144531 16.18621094 6.32226562 16.18554688 C1.14031158 16.14031158 1.14031158 16.14031158 0 15 C-0.07313567 12.46950598 -0.09247527 9.96695163 -0.0625 7.4375 C-0.05798828 6.72658203 -0.05347656 6.01566406 -0.04882812 5.28320312 C-0.03700864 3.52209987 -0.01907263 1.76103964 0 0 Z " fill="#F451C0" transform="translate(37,131)"/>
<path d="M0 0 C0.80103149 0.00202423 1.60206299 0.00404846 2.42736816 0.00613403 C3.24483521 0.00517731 4.06230225 0.00422058 4.90454102 0.00323486 C6.63627194 0.00255308 8.3680054 0.00440724 10.09973145 0.00857544 C12.75978298 0.01392374 15.41966566 0.00863041 18.07971191 0.00222778 C19.75809771 0.00288857 21.43648339 0.00416973 23.11486816 0.00613403 C23.91589966 0.0041098 24.71693115 0.00208557 25.54223633 0 C31.15616738 0.02399575 31.15616738 0.02399575 32.27111816 1.13894653 C32.37215071 3.93888251 32.41081904 6.71363297 32.40393066 9.51394653 C32.40488739 10.35360962 32.40584412 11.19327271 32.40682983 12.05838013 C32.40751164 13.83718948 32.40565733 15.61600131 32.40148926 17.39480591 C32.39614099 20.12728429 32.40143422 22.8595983 32.40783691 25.59207153 C32.40717613 27.31603023 32.40589497 29.03998883 32.40393066 30.76394653 C32.4059549 31.58685181 32.40797913 32.40975708 32.4100647 33.25759888 C32.38606871 39.02399599 32.38606871 39.02399599 31.27111816 40.13894653 C28.74062414 40.2120822 26.2380698 40.2314218 23.70861816 40.20144653 C22.9977002 40.19693481 22.28678223 40.1924231 21.55432129 40.18777466 C19.79321803 40.17595517 18.03215781 40.15801916 16.27111816 40.13894653 C15.94111816 38.81894653 15.61111816 37.49894653 15.27111816 36.13894653 C13.95111816 36.13894653 12.63111816 36.13894653 11.27111816 36.13894653 C10.61111816 37.45894653 9.95111816 38.77894653 9.27111816 40.13894653 C6.79188015 40.16579749 4.31292977 40.18571201 1.83361816 40.20144653 C1.12656738 40.20982544 0.4195166 40.21820435 -0.30895996 40.22683716 C-2.11581743 40.23548241 -3.92275786 40.19114665 -5.72888184 40.13894653 C-7.55004186 38.31778651 -6.86123263 35.83222889 -6.86560059 33.41238403 C-6.8617334 32.66214966 -6.85786621 31.91191528 -6.85388184 31.13894653 C-6.85774902 30.38871216 -6.86161621 29.63847778 -6.86560059 28.86550903 C-6.85549237 23.26555707 -6.85549237 23.26555707 -5.72888184 22.13894653 C-3.58501527 21.98035811 -1.43621345 21.88765355 0.71252441 21.82254028 C2.67028809 21.75969849 2.67028809 21.75969849 4.66760254 21.69558716 C6.05627146 21.65577046 7.44494338 21.61605828 8.83361816 21.57644653 C10.22621 21.53326664 11.61878844 21.48965253 13.01135254 21.44558716 C16.43116617 21.33908777 19.85105579 21.2370773 23.27111816 21.13894653 C23.31366173 19.13939907 23.31192599 17.13853017 23.27111816 15.13894653 C21.53262188 13.40045025 19.19245447 13.96678357 16.83361816 13.95144653 C15.84490723 13.93726685 14.85619629 13.92308716 13.83752441 13.90847778 C11.10527401 13.87743901 11.10527401 13.87743901 9.27111816 16.13894653 C6.708195 16.31058384 4.26765959 16.37159211 1.70861816 16.32644653 C1.01059082 16.325802 0.31256348 16.32515747 -0.40661621 16.32449341 C-5.58857025 16.27925812 -5.58857025 16.27925812 -6.72888184 15.13894653 C-6.82797486 12.80734598 -6.85858688 10.47264712 -6.85388184 8.13894653 C-6.85645996 6.86019653 -6.85903809 5.58144653 -6.86169434 4.26394653 C-6.63825727 -0.99339627 -4.75378948 0.02031922 0 0 Z " fill="#F651C0" transform="translate(135.7288818359375,130.86105346679688)"/>
<path d="M0 0 C2.64590014 -0.02684679 5.29153096 -0.04676357 7.9375 -0.0625 C8.69224609 -0.07087891 9.44699219 -0.07925781 10.22460938 -0.08789062 C12.14994313 -0.09652441 14.07535581 -0.05224333 16 0 C17.71443219 1.71443219 17.23052967 4.00445241 17.31640625 6.34765625 C17.35830078 7.42724609 17.40019531 8.50683594 17.44335938 9.61914062 C17.48267578 10.75544922 17.52199219 11.89175781 17.5625 13.0625 C17.60568359 14.20267578 17.64886719 15.34285156 17.69335938 16.51757812 C17.79982839 19.34492195 17.90184207 22.17235738 18 25 C18.99 25.33 19.98 25.66 21 26 C20.95875 24.88625 20.9175 23.7725 20.875 22.625 C21 19 21 19 23 17 C25.56292317 16.82836269 28.00345857 16.76735442 30.5625 16.8125 C31.26052734 16.81314453 31.95855469 16.81378906 32.67773438 16.81445312 C37.85968842 16.85968842 37.85968842 16.85968842 39 18 C39.09959621 19.84159023 39.13080411 21.68696967 39.1328125 23.53125 C39.13474609 25.21154297 39.13474609 25.21154297 39.13671875 26.92578125 C39.13285156 28.10527344 39.12898438 29.28476563 39.125 30.5 C39.13080078 32.26923828 39.13080078 32.26923828 39.13671875 34.07421875 C39.13542969 35.19441406 39.13414063 36.31460938 39.1328125 37.46875 C39.13168457 38.50451172 39.13055664 39.54027344 39.12939453 40.60742188 C39 43 39 43 38 44 C35.27275721 44.10099488 32.57137477 44.13970529 29.84375 44.1328125 C28.61754944 44.13424759 28.61754944 44.13424759 27.36657715 44.13571167 C25.63484622 44.13639345 23.90311276 44.13453929 22.17138672 44.13037109 C19.51133518 44.12502279 16.8514525 44.13031612 14.19140625 44.13671875 C12.51302046 44.13605797 10.83463477 44.1347768 9.15625 44.1328125 C8.35521851 44.13483673 7.55418701 44.13686096 6.72888184 44.13894653 C1.11495079 44.11495079 1.11495079 44.11495079 0 43 C-0.09268999 41.64905018 -0.11747326 40.29332909 -0.11352539 38.93920898 C-0.11344986 38.07839218 -0.11337433 37.21757538 -0.11329651 36.33067322 C-0.10813522 35.39526199 -0.10297394 34.45985077 -0.09765625 33.49609375 C-0.0962413 32.54307877 -0.09482635 31.59006378 -0.09336853 30.60816956 C-0.08775152 27.55124835 -0.07519616 24.49439923 -0.0625 21.4375 C-0.05748719 19.37044376 -0.05292391 17.30338638 -0.04882812 15.23632812 C-0.03777656 10.15752412 -0.02050055 5.0787743 0 0 Z " fill="#FB8313" transform="translate(37,83)"/>
<path d="M0 0 C12.87 0 25.74 0 39 0 C39.020625 4.104375 39.04125 8.20875 39.0625 12.4375 C39.071604 13.73357178 39.08070801 15.02964355 39.09008789 16.36499023 C39.09258545 17.37762939 39.09508301 18.39026855 39.09765625 19.43359375 C39.10289307 20.47572021 39.10812988 21.51784668 39.11352539 22.59155273 C39 25 39 25 38 26 C35.5057035 26.15313272 33.05811507 26.23156517 30.5625 26.25 C29.86833984 26.270625 29.17417969 26.29125 28.45898438 26.3125 C26.44140625 26.328125 26.44140625 26.328125 23 26 C22.34 25.01 21.68 24.02 21 23 C18.94074861 22.27617533 18.94074861 22.27617533 17 22 C16.67 23.32 16.34 24.64 16 26 C13.52076199 26.02685095 11.0418116 26.04676547 8.5625 26.0625 C7.85544922 26.07087891 7.14839844 26.07925781 6.41992188 26.08789062 C4.61306441 26.09653588 2.80612397 26.05220011 1 26 C0 25 0 25 -0.11352539 22.59155273 C-0.10828857 21.54942627 -0.10305176 20.5072998 -0.09765625 19.43359375 C-0.09515869 18.42095459 -0.09266113 17.40831543 -0.09008789 16.36499023 C-0.08098389 15.06891846 -0.07187988 13.77284668 -0.0625 12.4375 C-0.041875 8.333125 -0.02125 4.22875 0 0 Z " fill="#F853C4" transform="translate(239,145)"/>
<path d="M0 0 C5.61 0 11.22 0 17 0 C17 14.85 17 29.7 17 45 C11.39 45 5.78 45 0 45 C0 30.15 0 15.3 0 0 Z " fill="#FBA40C" transform="translate(173,83)"/>
<path d="M0 0 C27.39 0 54.78 0 83 0 C83 2.97 83 5.94 83 9 C55.61 9 28.22 9 0 9 C0 6.03 0 3.06 0 0 Z " fill="#F7EB00" transform="translate(195,83)"/>
<path d="M0 0 C12.87 0 25.74 0 39 0 C39 5.28 39 10.56 39 16 C37.18434564 17.81565436 34.68730038 17.12861899 32.27111816 17.13894653 C31.47008667 17.1369223 30.66905518 17.13489807 29.84375 17.1328125 C28.61754944 17.13424759 28.61754944 17.13424759 27.36657715 17.13571167 C25.63484622 17.13639345 23.90311276 17.13453929 22.17138672 17.13037109 C19.51133518 17.12502279 16.8514525 17.13031612 14.19140625 17.13671875 C12.51302046 17.13605797 10.83463477 17.1347768 9.15625 17.1328125 C8.35521851 17.13483673 7.55418701 17.13686096 6.72888184 17.13894653 C1.11495079 17.11495079 1.11495079 17.11495079 0 16 C0 10.72 0 5.44 0 0 Z " fill="#F953C4" transform="translate(173,154)"/>
<path d="M0 0 C12.87 0 25.74 0 39 0 C39 5.28 39 10.56 39 16 C38 17 38 17 34.48999023 17.11352539 C32.92951578 17.11336626 31.36903607 17.10767142 29.80859375 17.09765625 C28.98875504 17.0962413 28.16891632 17.09482635 27.32423401 17.09336853 C24.69528618 17.08775289 22.06642227 17.07519779 19.4375 17.0625 C17.65950643 17.05748701 15.88151154 17.05292376 14.10351562 17.04882812 C9.73564455 17.03777839 5.36783652 17.02050331 1 17 C-1.53859104 11.92281793 0 5.67646212 0 0 Z " fill="#F953C4" transform="translate(85,154)"/>
<path d="M0 0 C12.87 0 25.74 0 39 0 C39 7.59 39 15.18 39 23 C26.46 23 13.92 23 1 23 C1 22.67 1 22.34 1 22 C10.24 21.67 19.48 21.34 29 21 C29.33 18.36 29.66 15.72 30 13 C27.8537974 13.14029419 25.70803782 13.28738164 23.5625 13.4375 C22.36753906 13.51871094 21.17257812 13.59992188 19.94140625 13.68359375 C17.11429756 13.67656114 17.11429756 13.67656114 16 15 C13.48863896 15.09975032 11.01096585 15.13882183 8.5 15.125 C7.79746094 15.12886719 7.09492188 15.13273437 6.37109375 15.13671875 C1.12661378 15.12661378 1.12661378 15.12661378 0 14 C0 9.38 0 4.76 0 0 Z " fill="#FB7F13" transform="translate(239,105)"/>
<path d="M0 0 C5.61 0 11.22 0 17 0 C17.0229102 4.82387067 17.04283686 9.64755389 17.05493164 14.47143555 C17.05997174 16.11369464 17.06680378 17.75594923 17.07543945 19.39819336 C17.08751926 21.75375479 17.09323139 24.10925709 17.09765625 26.46484375 C17.10281754 27.20339096 17.10797882 27.94193817 17.11329651 28.7028656 C17.1134925 30.46898088 17.06194719 32.23497146 17 34 C15.24440058 35.75559942 12.96417558 35.13221919 10.62890625 35.13671875 C9.92636719 35.13285156 9.22382813 35.12898438 8.5 35.125 C7.79746094 35.12886719 7.09492188 35.13273437 6.37109375 35.13671875 C1.12661378 35.12661378 1.12661378 35.12661378 0 34 C-0.08847743 31.47905924 -0.11527301 28.98569107 -0.09765625 26.46484375 C-0.0962413 25.71159317 -0.09482635 24.95834259 -0.09336853 24.18226624 C-0.08775376 21.7673044 -0.07519883 19.35243399 -0.0625 16.9375 C-0.0574869 15.30403779 -0.05292366 13.67057414 -0.04882812 12.03710938 C-0.03862875 8.0246757 -0.01905645 4.01244064 0 0 Z " fill="#FB5296" transform="translate(217,136)"/>
<path d="M0 0 C5.39346988 -0.02464849 10.78690725 -0.04283531 16.18041992 -0.05493164 C18.01668875 -0.05997231 19.85295354 -0.06680477 21.68920898 -0.07543945 C24.32276401 -0.08751672 26.95626616 -0.09323081 29.58984375 -0.09765625 C30.41588608 -0.10281754 31.24192841 -0.10797882 32.09300232 -0.11329651 C34.06236368 -0.11349205 36.03161614 -0.06204152 38 0 C39 1 39 1 39.09765625 3.94140625 C39.08605469 5.13636719 39.07445312 6.33132812 39.0625 7.5625 C39.05347656 8.76003906 39.04445312 9.95757812 39.03515625 11.19140625 C39.02355469 12.11824219 39.01195312 13.04507813 39 14 C38.06148193 13.98428955 38.06148193 13.98428955 37.10400391 13.96826172 C34.2777099 13.92676809 31.45147989 13.90069527 28.625 13.875 C27.64015625 13.85824219 26.6553125 13.84148437 25.640625 13.82421875 C24.69960938 13.81777344 23.75859375 13.81132812 22.7890625 13.8046875 C21.91975098 13.79421387 21.05043945 13.78374023 20.15478516 13.77294922 C17.78654061 13.79404891 17.78654061 13.79404891 16 16 C13.43707683 16.17163731 10.99654143 16.23264558 8.4375 16.1875 C7.73947266 16.18685547 7.04144531 16.18621094 6.32226562 16.18554688 C1.14031158 16.14031158 1.14031158 16.14031158 0 15 C-0.07313567 12.46950598 -0.09247527 9.96695163 -0.0625 7.4375 C-0.05798828 6.72658203 -0.05347656 6.01566406 -0.04882812 5.28320312 C-0.03700864 3.52209987 -0.01907263 1.76103964 0 0 Z " fill="#F84F69" transform="translate(37,131)"/>
<path d="M0 0 C0.80103149 0.00202423 1.60206299 0.00404846 2.42736816 0.00613403 C3.24483521 0.00517731 4.06230225 0.00422058 4.90454102 0.00323486 C6.63627194 0.00255308 8.3680054 0.00440724 10.09973145 0.00857544 C12.75978298 0.01392374 15.41966566 0.00863041 18.07971191 0.00222778 C19.75809771 0.00288857 21.43648339 0.00416973 23.11486816 0.00613403 C23.91589966 0.0041098 24.71693115 0.00208557 25.54223633 0 C31.15616738 0.02399575 31.15616738 0.02399575 32.27111816 1.13894653 C32.34370762 3.32534106 32.35485599 5.51395042 32.33361816 7.70144653 C32.32459473 8.8989856 32.31557129 10.09652466 32.30627441 11.33035278 C32.29467285 12.25718872 32.28307129 13.18402466 32.27111816 14.13894653 C31.3326001 14.12323608 31.3326001 14.12323608 30.37512207 14.10720825 C27.54882806 14.06571462 24.72259805 14.0396418 21.89611816 14.01394653 C20.91127441 13.99718872 19.92643066 13.98043091 18.91174316 13.96316528 C17.97072754 13.95671997 17.02971191 13.95027466 16.06018066 13.94363403 C15.19086914 13.9331604 14.32155762 13.92268677 13.42590332 13.91189575 C11.05765878 13.93299545 11.05765878 13.93299545 9.27111816 16.13894653 C6.708195 16.31058384 4.26765959 16.37159211 1.70861816 16.32644653 C1.01059082 16.325802 0.31256348 16.32515747 -0.40661621 16.32449341 C-5.58857025 16.27925812 -5.58857025 16.27925812 -6.72888184 15.13894653 C-6.82797486 12.80734598 -6.85858688 10.47264712 -6.85388184 8.13894653 C-6.85645996 6.86019653 -6.85903809 5.58144653 -6.86169434 4.26394653 C-6.63825727 -0.99339627 -4.75378948 0.02031922 0 0 Z " fill="#F94F69" transform="translate(135.7288818359375,130.86105346679688)"/>
<path d="M0 0 C5.61 0 11.22 0 17 0 C17.0268245 4.14587582 17.04675315 8.29158038 17.0625 12.4375 C17.07087891 13.62150391 17.07925781 14.80550781 17.08789062 16.02539062 C17.09272461 17.71245117 17.09272461 17.71245117 17.09765625 19.43359375 C17.10551147 20.99678345 17.10551147 20.99678345 17.11352539 22.59155273 C17 25 17 25 16 26 C13.48863896 26.09975032 11.01096585 26.13882183 8.5 26.125 C7.79746094 26.12886719 7.09492187 26.13273437 6.37109375 26.13671875 C1.12661378 26.12661378 1.12661378 26.12661378 0 25 C-0.08737645 23.14630389 -0.10698153 21.28932459 -0.09765625 19.43359375 C-0.09443359 18.30888672 -0.09121094 17.18417969 -0.08789062 16.02539062 C-0.07951172 14.84138672 -0.07113281 13.65738281 -0.0625 12.4375 C-0.05798828 11.24962891 -0.05347656 10.06175781 -0.04882812 8.83789062 C-0.03699686 5.89190588 -0.01906076 2.94594684 0 0 Z " fill="#FBA40C" transform="translate(107,101)"/>
<path d="M0 0 C12.87 0 25.74 0 39 0 C39 2.97 39 5.94 39 9 C26.13 9 13.26 9 0 9 C0 6.03 0 3.06 0 0 Z " fill="#FA5196" transform="translate(239,145)"/>
<path d="M0 0 C1.60279192 0.00015914 3.20558896 0.00585476 4.80834961 0.01586914 C5.65038437 0.01728409 6.49241913 0.01869904 7.35997009 0.02015686 C10.06024671 0.02577276 12.76044163 0.03832791 15.46069336 0.05102539 C17.28686404 0.05603834 19.11303602 0.06060161 20.93920898 0.06469727 C25.42556878 0.07574735 29.9118672 0.0930226 34.39819336 0.11352539 C34.39819336 3.08352539 34.39819336 6.05352539 34.39819336 9.11352539 C21.52819336 9.11352539 8.65819336 9.11352539 -4.60180664 9.11352539 C-4.60180664 0.1450444 -4.60180664 0.1450444 0 0 Z " fill="#F7EB00" transform="translate(89.601806640625,82.886474609375)"/>
<path d="M0 0 C12.87 0 25.74 0 39 0 C39 2.64 39 5.28 39 8 C37.18434564 9.81565436 34.68730038 9.12861899 32.27111816 9.13894653 C31.47008667 9.1369223 30.66905518 9.13489807 29.84375 9.1328125 C28.61754944 9.13424759 28.61754944 9.13424759 27.36657715 9.13571167 C25.63484622 9.13639345 23.90311276 9.13453929 22.17138672 9.13037109 C19.51133518 9.12502279 16.8514525 9.13031612 14.19140625 9.13671875 C12.51302046 9.13605797 10.83463477 9.1347768 9.15625 9.1328125 C8.35521851 9.13483673 7.55418701 9.13686096 6.72888184 9.13894653 C1.11495079 9.11495079 1.11495079 9.11495079 0 8 C0 5.36 0 2.72 0 0 Z " fill="#F75D1A" transform="translate(37,118)"/>
<path d="M0 0 C12.87 0 25.74 0 39 0 C39 2.64 39 5.28 39 8 C38 9 38 9 34.62109375 9.09765625 C33.22652923 9.09098369 31.83198257 9.07902532 30.4375 9.0625 C29.72658203 9.05798828 29.01566406 9.05347656 28.28320312 9.04882812 C26.52209987 9.03700864 24.76103964 9.01907263 23 9 C22.67 7.68 22.34 6.36 22 5 C20.68 5 19.36 5 18 5 C17.34 6.32 16.68 7.64 16 9 C13.52076199 9.02685095 11.0418116 9.04676547 8.5625 9.0625 C7.85544922 9.07087891 7.14839844 9.07925781 6.41992188 9.08789062 C4.61306441 9.09653588 2.80612397 9.05220011 1 9 C0.67 8.67 0.34 8.34 0 8 C0 5.36 0 2.72 0 0 Z " fill="#F151E7" transform="translate(129,162)"/>
<path d="M0 0 C12.54 0 25.08 0 38 0 C38 2.97 38 5.94 38 9 C35.56131832 9.1079859 33.12740867 9.18726589 30.6875 9.25 C29.99720703 9.28351563 29.30691406 9.31703125 28.59570312 9.3515625 C26.57421875 9.390625 26.57421875 9.390625 23 9 C21.14453125 6.984375 21.14453125 6.984375 20 5 C19.34 5 18.68 5 18 5 C17.34 6.32 16.68 7.64 16 9 C13.52076199 9.02685095 11.0418116 9.04676547 8.5625 9.0625 C7.85544922 9.07087891 7.14839844 9.07925781 6.41992188 9.08789062 C4.61306441 9.09653588 2.80612397 9.05220011 1 9 C0.67 8.67 0.34 8.34 0 8 C0 5.36 0 2.72 0 0 Z " fill="#F252E8" transform="translate(37,162)"/>
<path d="M0 0 C19.305 0.495 19.305 0.495 39 1 C39 3.64 39 6.28 39 9 C26.13 9 13.26 9 0 9 C0 6.03 0 3.06 0 0 Z " fill="#FA4E35" transform="translate(239,127)"/>
<path d="M0 0 C12.87 0 25.74 0 39 0 C39 2.31 39 4.62 39 7 C37.18434564 8.81565436 34.68730038 8.12861899 32.27111816 8.13894653 C31.47008667 8.1369223 30.66905518 8.13489807 29.84375 8.1328125 C28.61754944 8.13424759 28.61754944 8.13424759 27.36657715 8.13571167 C25.63484622 8.13639345 23.90311276 8.13453929 22.17138672 8.13037109 C19.51133518 8.12502279 16.8514525 8.13031612 14.19140625 8.13671875 C12.51302046 8.13605797 10.83463477 8.1347768 9.15625 8.1328125 C8.35521851 8.13483673 7.55418701 8.13686096 6.72888184 8.13894653 C1.11495079 8.11495079 1.11495079 8.11495079 0 7 C0 4.69 0 2.38 0 0 Z " fill="#F251EA" transform="translate(173,163)"/>
<path d="M0 0 C12.87 0 25.74 0 39 0 C39 2.31 39 4.62 39 7 C38 8 38 8 34.48999023 8.11352539 C32.92951578 8.11336626 31.36903607 8.10767142 29.80859375 8.09765625 C28.98875504 8.0962413 28.16891632 8.09482635 27.32423401 8.09336853 C24.69528618 8.08775289 22.06642227 8.07519779 19.4375 8.0625 C17.65950643 8.05748701 15.88151154 8.05292376 14.10351562 8.04882812 C9.73564455 8.03777839 5.36783652 8.02050331 1 8 C0 6 0 6 0 0 Z " fill="#F151EA" transform="translate(85,163)"/>
<path d="M0 0 C6.93 0 13.86 0 21 0 C20.01 0.66 19.02 1.32 18 2 C17.64191146 4.58586887 17.44242866 6.9689048 17.375 9.5625 C17.10414669 16.89585331 17.10414669 16.89585331 16 18 C13.48863896 18.09975032 11.01096585 18.13882183 8.5 18.125 C7.79746094 18.12886719 7.09492188 18.13273437 6.37109375 18.13671875 C1.12661378 18.12661378 1.12661378 18.12661378 0 17 C-0.07330331 14.13530675 -0.09217831 11.30106326 -0.0625 8.4375 C-0.041875 5.653125 -0.02125 2.86875 0 0 Z " fill="#FA8413" transform="translate(129,109)"/>
<path d="M0 0 C5.61 0 11.22 0 17 0 C17.4375 7.875 17.4375 7.875 17.56811523 10.35107422 C17.73591543 14.30464416 17.73591543 14.30464416 19 18 C12.73 18 6.46 18 0 18 C0 12.06 0 6.12 0 0 Z " fill="#FAC606" transform="translate(129,83)"/>
<path d="M0 0 C2.64590014 -0.02684679 5.29153096 -0.04676357 7.9375 -0.0625 C8.69224609 -0.07087891 9.44699219 -0.07925781 10.22460938 -0.08789062 C12.14994313 -0.09652441 14.07535581 -0.05224333 16 0 C17 1 17 1 17.09765625 4.81640625 C17.09191138 6.39847047 17.07889593 7.98051031 17.0625 9.5625 C17.041875 12.346875 17.02125 15.13125 17 18 C10.73 18 4.46 18 -2 18 C-1.67 17.34 -1.34 16.68 -1 16 C-0.7677354 13.28737884 -0.58063765 10.59226874 -0.4375 7.875 C-0.39431641 7.12089844 -0.35113281 6.36679688 -0.30664062 5.58984375 C-0.2005168 3.72678112 -0.09974999 1.86341476 0 0 Z " fill="#F9C606" transform="translate(151,83)"/>
<path d="M0 0 C5.61 0 11.22 0 17 0 C17 5.94 17 11.88 17 18 C11.39 18 5.78 18 0 18 C0 12.06 0 6.12 0 0 Z " fill="#FE5F1A" transform="translate(217,118)"/>
<path d="M0 0 C5.61 0 11.22 0 17 0 C17 5.94 17 11.88 17 18 C11.39 18 5.78 18 0 18 C0 12.06 0 6.12 0 0 Z " fill="#FE5F1A" transform="translate(85,110)"/>
<path d="M0 0 C5.61 0 11.22 0 17 0 C17 5.94 17 11.88 17 18 C11.39 18 5.78 18 0 18 C0 12.06 0 6.12 0 0 Z " fill="#FAC706" transform="translate(173,83)"/>
<path d="M0 0 C3.9290625 -0.0309375 3.9290625 -0.0309375 7.9375 -0.0625 C8.7637085 -0.071604 9.58991699 -0.08070801 10.44116211 -0.09008789 C12.29433759 -0.09723945 14.14749308 -0.0502852 16 0 C17 1 17 1 17.09765625 4.81640625 C17.09191138 6.39847047 17.07889593 7.98051031 17.0625 9.5625 C17.041875 12.346875 17.02125 15.13125 17 18 C11.39 18 5.78 18 0 18 C0 12.06 0 6.12 0 0 Z " fill="#FAC706" transform="translate(37,83)"/>
<path d="M0 0 C12.87 0 25.74 0 39 0 C39 2.31 39 4.62 39 7 C37.01215101 8.98784899 33.27299593 8.22997787 30.5625 8.25 C29.52125977 8.2809375 29.52125977 8.2809375 28.45898438 8.3125 C26.44140625 8.328125 26.44140625 8.328125 23 8 C22.34 7.01 21.68 6.02 21 5 C18.94074861 4.27617533 18.94074861 4.27617533 17 4 C16.67 5.32 16.34 6.64 16 8 C13.52076199 8.02685095 11.0418116 8.04676547 8.5625 8.0625 C7.85544922 8.07087891 7.14839844 8.07925781 6.41992188 8.08789062 C4.61306441 8.09653588 2.80612397 8.05220011 1 8 C0.67 7.67 0.34 7.34 0 7 C0 4.69 0 2.38 0 0 Z " fill="#F051E9" transform="translate(239,163)"/>
<path d="M0 0 C5.61 0 11.22 0 17 0 C17 5.61 17 11.22 17 17 C11.39 17 5.78 17 0 17 C0 11.39 0 5.78 0 0 Z " fill="#FD5166" transform="translate(85,128)"/>
<path d="M0 0 C5.61 0 11.22 0 17 0 C17 5.61 17 11.22 17 17 C11.39 17 5.78 17 0 17 C0 11.39 0 5.78 0 0 Z " fill="#FBA40C" transform="translate(217,101)"/>
<path d="M0 0 C5.61 0 11.22 0 17 0 C17.020625 2.619375 17.04125 5.23875 17.0625 7.9375 C17.071604 8.7637085 17.08070801 9.58991699 17.09008789 10.44116211 C17.09723945 12.29433759 17.0502852 14.14749308 17 16 C15.24440058 17.75559942 12.96417558 17.13221919 10.62890625 17.13671875 C9.92636719 17.13285156 9.22382813 17.12898438 8.5 17.125 C7.79746094 17.12886719 7.09492188 17.13273437 6.37109375 17.13671875 C1.12661378 17.12661378 1.12661378 17.12661378 0 16 C-0.07325436 13.3013095 -0.09222351 10.63497444 -0.0625 7.9375 C-0.041875 5.318125 -0.02125 2.69875 0 0 Z " fill="#F953C4" transform="translate(217,154)"/>
<path d="M0 0 C2.86724686 0.57344937 3.8614515 0.8614515 6 3 C10.50317123 2.64736215 10.50317123 2.64736215 14 0 C14.99 0 15.98 0 17 0 C17.02684679 2.64590014 17.04676357 5.29153096 17.0625 7.9375 C17.07087891 8.69224609 17.07925781 9.44699219 17.08789062 10.22460938 C17.09652441 12.14994313 17.05224333 14.07535581 17 16 C15.24440058 17.75559942 12.96417558 17.13221919 10.62890625 17.13671875 C9.92636719 17.13285156 9.22382813 17.12898438 8.5 17.125 C7.79746094 17.12886719 7.09492188 17.13273437 6.37109375 17.13671875 C1.12661378 17.12661378 1.12661378 17.12661378 0 16 C-0.07319621 13.30345146 -0.09242537 10.63308542 -0.0625 7.9375 C-0.05798828 7.17888672 -0.05347656 6.42027344 -0.04882812 5.63867188 C-0.0370068 3.75908129 -0.01907078 1.87953101 0 0 Z " fill="#FE5035" transform="translate(195,123)"/>
<path d="M0 0 C0.70253906 0.00386719 1.40507813 0.00773438 2.12890625 0.01171875 C2.83144531 0.00785156 3.53398438 0.00398437 4.2578125 0 C9.50229247 0.01010497 9.50229247 0.01010497 10.62890625 1.13671875 C10.77284082 5.47202793 10.67102686 9.79829606 10.62890625 14.13671875 C5.01890625 14.13671875 -0.59109375 14.13671875 -6.37109375 14.13671875 C-6.46875 4.078125 -6.46875 4.078125 -6.37109375 1.13671875 C-4.61549433 -0.61888067 -2.33526933 0.00449956 0 0 Z " fill="#FD5166" transform="translate(113.37109375,130.86328125)"/>
<path d="M0 0 C0.33 0 0.66 0 1 0 C1 22.44 1 44.88 1 68 C0.67 68 0.34 68 0 68 C0 62.72 0 57.44 0 52 C-5.61 52 -11.22 52 -17 52 C-17 49.36 -17 46.72 -17 44 C-11.39 44 -5.78 44 0 44 C0 29.48 0 14.96 0 0 Z " fill="#D2493A" transform="translate(190,84)"/>
<path d="M0 0 C12.87 0 25.74 0 39 0 C39 1.65 39 3.3 39 5 C26.13 5 13.26 5 0 5 C0 3.35 0 1.7 0 0 Z " fill="#FAA20D" transform="translate(239,105)"/>
<path d="M0 0 C12.54 0 25.08 0 38 0 C38.495 2.475 38.495 2.475 39 5 C26.13 5 13.26 5 0 5 C0 3.35 0 1.7 0 0 Z " fill="#FB4F35" transform="translate(37,131)"/>
<path d="M0 0 C12.21 0 24.42 0 37 0 C37.495 2.475 37.495 2.475 38 5 C25.13 5 12.26 5 -1 5 C-0.67 3.35 -0.34 1.7 0 0 Z " fill="#FC4F35" transform="translate(130,131)"/>
<path d="M0 0 C6.93 0 13.86 0 21 0 C20.01 0.66 19.02 1.32 18 2 C17.67 4.64 17.34 7.28 17 10 C11.39 10 5.78 10 0 10 C0 6.7 0 3.4 0 0 Z " fill="#F8A40C" transform="translate(85,100)"/>
<path d="M0 0 C0.70253906 0.00386719 1.40507812 0.00773438 2.12890625 0.01171875 C2.83144531 0.00785156 3.53398437 0.00398437 4.2578125 0 C9.50229247 0.01010497 9.50229247 0.01010497 10.62890625 1.13671875 C10.62890625 4.10671875 10.62890625 7.07671875 10.62890625 10.13671875 C4.68890625 10.13671875 -1.25109375 10.13671875 -7.37109375 10.13671875 C-6.37290957 0.01227921 -6.37290957 0.01227921 0 0 Z " fill="#F44F91" transform="translate(201.37109375,143.86328125)"/>
<path d="M0 0 C5.61 0 11.22 0 17 0 C17 3.3 17 6.6 17 10 C11.39 10 5.78 10 0 10 C0 6.7 0 3.4 0 0 Z " fill="#FE5F1A" transform="translate(173,118)"/>
<path d="M0 0 C1.38294718 0.01329757 2.76582404 0.03715018 4.1484375 0.0703125 C4.85484375 0.07933594 5.56125 0.08835937 6.2890625 0.09765625 C8.03399848 0.12123647 9.77876045 0.15710789 11.5234375 0.1953125 C11.5234375 3.4953125 11.5234375 6.7953125 11.5234375 10.1953125 C5.5834375 10.1953125 -0.3565625 10.1953125 -6.4765625 10.1953125 C-5.23893874 0.2943224 -5.23893874 0.2943224 0 0 Z " fill="#F29E0F" transform="translate(63.4765625,99.8046875)"/>
<path d="M0 0 C1.9375 0.3125 1.9375 0.3125 4 1 C4.33 1.99 4.66 2.98 5 4 C5.99 4.33 6.98 4.66 8 5 C9.60769874 7.33116317 10.09530596 8.42816426 9.625 11.25 C9.315625 12.11625 9.315625 12.11625 9 13 C7.35 13 5.7 13 4 13 C3.67 14.32 3.34 15.64 3 17 C1.68 16.67 0.36 16.34 -1 16 C-1 15.01 -1 14.02 -1 13 C-2.98 13 -4.96 13 -7 13 C-6.44271087 9.65626525 -5.64826111 6.96687001 -4 4 C-3.34 4 -2.68 4 -2 4 C-1.34 2.68 -0.68 1.36 0 0 Z " fill="#20EBF1" transform="translate(202,105)"/>
<path d="M0 0 C5.61 0 11.22 0 17 0 C17 2.97 17 5.94 17 9 C11.39 9 5.78 9 0 9 C0 6.03 0 3.06 0 0 Z " fill="#FD5166" transform="translate(217,136)"/>
<path d="M0 0 C5.61 0 11.22 0 17 0 C17 2.97 17 5.94 17 9 C11.39 9 5.78 9 0 9 C0 6.03 0 3.06 0 0 Z " fill="#FD5166" transform="translate(173,136)"/>
<path d="M0 0 C5.61 0 11.22 0 17 0 C17 2.97 17 5.94 17 9 C11.39 9 5.78 9 0 9 C0 6.03 0 3.06 0 0 Z " fill="#FBA40C" transform="translate(37,101)"/>
<path d="M0 0 C5.61 0 11.22 0 17 0 C17 2.97 17 5.94 17 9 C11.39 9 5.78 9 0 9 C0 6.03 0 3.06 0 0 Z " fill="#F7EB00" transform="translate(173,83)"/>
<path d="M0 0 C5.61 0 11.22 0 17 0 C17 2.97 17 5.94 17 9 C11.39 9 5.78 9 0 9 C0 6.03 0 3.06 0 0 Z " fill="#F6EA00" transform="translate(129,83)"/>
<path d="M0 0 C2.64590014 -0.02684679 5.29153096 -0.04676357 7.9375 -0.0625 C8.69224609 -0.07087891 9.44699219 -0.07925781 10.22460938 -0.08789062 C12.14994313 -0.09652441 14.07535581 -0.05224333 16 0 C17 1 17 1 17 9 C11.39 9 5.78 9 0 9 C0 6.03 0 3.06 0 0 Z " fill="#F7EB00" transform="translate(151,83)"/>
<path d="M0 0 C2.64590014 -0.02684679 5.29153096 -0.04676357 7.9375 -0.0625 C8.69224609 -0.07087891 9.44699219 -0.07925781 10.22460938 -0.08789062 C12.14994313 -0.09652441 14.07535581 -0.05224333 16 0 C17 1 17 1 17 9 C11.39 9 5.78 9 0 9 C0 6.03 0 3.06 0 0 Z " fill="#F7EB00" transform="translate(37,83)"/>
<path d="M0 0 C5.61 0 11.22 0 17 0 C17 2.64 17 5.28 17 8 C15.24440058 9.75559942 12.96417558 9.13221919 10.62890625 9.13671875 C9.92636719 9.13285156 9.22382813 9.12898438 8.5 9.125 C7.79746094 9.12886719 7.09492188 9.13273437 6.37109375 9.13671875 C1.12661378 9.12661378 1.12661378 9.12661378 0 8 C0 5.36 0 2.72 0 0 Z " fill="#F75D1A" transform="translate(151,118)"/>
<path d="M0 0 C5.61 0 11.22 0 17 0 C17 2.64 17 5.28 17 8 C15.24440058 9.75559942 12.96417558 9.13221919 10.62890625 9.13671875 C9.92636719 9.13285156 9.22382813 9.12898438 8.5 9.125 C7.79746094 9.12886719 7.09492188 9.13273437 6.37109375 9.13671875 C1.12661378 9.12661378 1.12661378 9.12661378 0 8 C0 5.36 0 2.72 0 0 Z " fill="#F85D1A" transform="translate(129,118)"/>
<path d="M0 0 C5.61 0 11.22 0 17 0 C17 2.64 17 5.28 17 8 C15.24440058 9.75559942 12.96417558 9.13221919 10.62890625 9.13671875 C9.92636719 9.13285156 9.22382812 9.12898438 8.5 9.125 C7.79746094 9.12886719 7.09492187 9.13273437 6.37109375 9.13671875 C1.12661378 9.12661378 1.12661378 9.12661378 0 8 C0 5.36 0 2.72 0 0 Z " fill="#F85D1A" transform="translate(107,118)"/>
<path d="M0 0 C5.61 0 11.22 0 17 0 C17 2.64 17 5.28 17 8 C11.39 8 5.78 8 0 8 C0 5.36 0 2.72 0 0 Z " fill="#FE5035" transform="translate(217,128)"/>
<path d="M0 0 C5.61 0 11.22 0 17 0 C17 2.64 17 5.28 17 8 C11.39 8 5.78 8 0 8 C0 5.36 0 2.72 0 0 Z " fill="#FE5035" transform="translate(85,128)"/>
<path d="M0 0 C5.61 0 11.22 0 17 0 C17 2.64 17 5.28 17 8 C11.39 8 5.78 8 0 8 C0 5.36 0 2.72 0 0 Z " fill="#FD8313" transform="translate(217,110)"/>
<path d="M0 0 C5.61 0 11.22 0 17 0 C17 2.64 17 5.28 17 8 C11.39 8 5.78 8 0 8 C0 5.36 0 2.72 0 0 Z " fill="#FD8313" transform="translate(173,110)"/>
<path d="M0 0 C5.61 0 11.22 0 17 0 C17 2.64 17 5.28 17 8 C11.39 8 5.78 8 0 8 C0 5.36 0 2.72 0 0 Z " fill="#FD8313" transform="translate(151,110)"/>
<path d="M0 0 C5.61 0 11.22 0 17 0 C17 2.64 17 5.28 17 8 C11.39 8 5.78 8 0 8 C0 5.36 0 2.72 0 0 Z " fill="#FD8313" transform="translate(107,110)"/>
<path d="M0 0 C5.61 0 11.22 0 17 0 C17 2.64 17 5.28 17 8 C11.39 8 5.78 8 0 8 C0 5.36 0 2.72 0 0 Z " fill="#FD8313" transform="translate(85,110)"/>
<path d="M0 0 C5.61 0 11.22 0 17 0 C17 2.31 17 4.62 17 7 C15.24440058 8.75559942 12.96417558 8.13221919 10.62890625 8.13671875 C9.92636719 8.13285156 9.22382813 8.12898437 8.5 8.125 C7.79746094 8.12886719 7.09492188 8.13273438 6.37109375 8.13671875 C1.12661378 8.12661378 1.12661378 8.12661378 0 7 C0 4.69 0 2.38 0 0 Z " fill="#F251EA" transform="translate(217,163)"/>
<path d="M0 0 C2.97 0 5.94 0 9 0 C9 3.3 9 6.6 9 10 C-3.54 10 -16.08 10 -29 10 C-29 9.67 -29 9.34 -29 9 C-19.76 8.67 -10.52 8.34 -1 8 C-0.67 5.36 -0.34 2.72 0 0 Z " fill="#F75A1F" transform="translate(269,118)"/>
<path d="M0 0 C2.97 0 5.94 0 9 0 C9 2.97 9 5.94 9 9 C-3.54 9 -16.08 9 -29 9 C-29 8.67 -29 8.34 -29 8 C-19.43 8 -9.86 8 0 8 C0 5.36 0 2.72 0 0 Z " fill="#E54A90" transform="translate(67,145)"/>
<path d="M0 0 C2.97 0 5.94 0 9 0 C9 2.97 9 5.94 9 9 C-3.54 9 -16.08 9 -29 9 C-29 8.67 -29 8.34 -29 8 C-19.43 7.67 -9.86 7.34 0 7 C0 4.69 0 2.38 0 0 Z " fill="#E74B91" transform="translate(159,145)"/>
<path d="M0 0 C4.95 0 9.9 0 15 0 C15.33 1.65 15.66 3.3 16 5 C10.39 5 4.78 5 -1 5 C-0.67 3.35 -0.34 1.7 0 0 Z " fill="#F94E35" transform="translate(108,131)"/>
<path d="M0 0 C5.61 0 11.22 0 17 0 C16.67 1.32 16.34 2.64 16 4 C11.05 4 6.1 4 1 4 C0.67 2.68 0.34 1.36 0 0 Z " fill="#FB5065" transform="translate(195,136)"/>
<path d="M0 0 C2.86724686 0.57344937 3.8614515 0.8614515 6 3 C10.50317123 2.64736215 10.50317123 2.64736215 14 0 C14.99 0 15.98 0 17 0 C17 1.65 17 3.3 17 5 C11.39 5 5.78 5 0 5 C0 3.35 0 1.7 0 0 Z " fill="#FA5A20" transform="translate(195,123)"/>
<path d="M0 0 C2.31 0 4.62 0 7 0 C7.33 1.32 7.66 2.64 8 4 C5.03 4 2.06 4 -1 4 C-0.67 2.68 -0.34 1.36 0 0 Z " fill="#1E0459" transform="translate(244,131)"/>
<path d="M0 0 C2.64 0 5.28 0 8 0 C7.67 1.32 7.34 2.64 7 4 C4.69 4 2.38 4 0 4 C0 2.68 0 1.36 0 0 Z " fill="#280866" transform="translate(134,158)"/>
<path d="M0 0 C2.64 0 5.28 0 8 0 C8 1.32 8 2.64 8 4 C5.69 4 3.38 4 1 4 C0.67 2.68 0.34 1.36 0 0 Z " fill="#250765" transform="translate(41,158)"/>
<path d="M0 0 C1.875 0.3125 1.875 0.3125 4 1 C4.66 1.99 5.32 2.98 6 4 C4.02 4 2.04 4 0 4 C0 2.68 0 1.36 0 0 Z " fill="#F95E1A" transform="translate(195,123)"/>
</svg>
